<?xml version="1.0" encoding="UTF-8"?>
<svg version="1.1" viewBox="0 0 1024 1024" width="1024" height="1024" xmlns="http://www.w3.org/2000/svg">
<path transform="translate(0)" d="m0 0h1024v1024h-1024z" fill="#99B1AF"/>
<path transform="translate(360,368)" d="m0 0h37l8 3 13 11 15 14 13 12 2 1v2l4 2 11 11 8 7 26 24 10 9 8 6 5-1 12-12 8-7 14-13 11-9 11-10 8-7 15-14 11-9 15-14 7-5 4-1h100l6 3 1 7-4 7-12 11-3 3h-2v2l-8 7-10 9-24 22-8 7-13 12-10 9-8 7-12 11-8 7-13 12-12 11h-2v2l-8 7-5 5 1 7 11 11 7 8 7 7 8 7 13 13 6 5v2l4 2 17 17 8 7 17 16 9 9 8 7 16 16 8 7 8 8 8 7 4 5-1 9-4 4-4 1h-91l-7-2-15-14-4-3v-2l-4-2-7-7-2-1v-2l-4-2-7-7-2-1v-2l-4-2-7-7-8-7-3-2v-2l-4-2-7-7-8-7-7-6v-2l-4-2-9-9-8-6-6 1-10 8-8 8-8 7-16 15-15 14-17 16-11 10-8 7-16 15-8 5h-94l-6-3-2-4 1-7 7-8 16-16 8-7 16-15 11-11 8-7 8-8 8-7 9-9 8-7 22-22 8-7 10-10 8-7 12-12 2-5-2-5-4-2-46-43-6-5v-2l-4-2-12-11-8-7-10-9-4-3v-2l-4-2-10-9-2-1v-2l-4-2-16-15-2-1v-2l-4-2-7-7-8-7-7-8-1-7 5-6 2-1z" fill="#C7312C"/>
<path transform="translate(379,349)" d="m0 0 23 1 10 4 9 6 15 14 8 7 12 11 8 7 14 12 16 15 12 11 8 6 5-1 11-9 11-10 8-7 10-9 8-7 10-9 8-7 14-12 5-5h2v-2l14-11 10-4 51-1h53l10 2 8 6 4 5 4 10v12l-4 9-7 8-16 15-24 22-15 14-10 9-8 7-13 12-12 11-10 9-12 11-8 7-11 10-1 2v6l6 7v2h2v2l4 2 15 15 8 7 11 11 8 7 16 15 17 16 20 20 8 7 7 7 8 7 10 10 6 9 3 9v8l-3 9-4 6-7 6-10 4-31 1h-63l-9-2-8-4-10-8-16-15-13-12-8-7-10-9-16-15-8-7-12-11-10-9-5 1-9 7-12 11-10 9-8 7-60 55-10 6-5 2-7 1h-93l-8-3-10-9-4-9-1-12 4-13 9-11 31-29 34-32 13-12 22-22 8-7 11-11h2v-2l8-7 3-3h2l2-4 2-2-1-4-25-25-8-7-10-9-12-11-15-14-8-7-10-9-8-7-12-11-13-12-11-9-8-7-7-10-2-6v-13l4-10 6-7 10-6 3-1zm-19 19-57 1-6 5-1 7 4 6 10 10 8 7 3 3h2v2l8 7 12 11h2v2l11 9 3 3h2v2l8 7 12 11 16 14h2v2l8 7 7 7 8 7 7 7 8 7 7 7 8 7 3 1 2 7-9 10-11 11-8 7-10 10-8 7-22 22-8 7-9 9-8 7-8 8-8 7-14 14-8 7-16 15-13 13-2 4 1 7 4 4 3 1h94l8-5 9-9 8-7 14-13 8-7 33-31 15-14 12-11 10-8 6-1 11 9 8 8h2v2l8 7 16 15h2v2l8 7 10 9 4 2v2l8 7 3 3h2v2l8 7 3 3h2v2l8 7 11 10 7 2h91l5-2 3-3 1-9-7-8-13-12-17-16-13-13-8-7-12-12-8-7-17-16-10-10h-2v-2l-8-7-17-17-8-7-7-7-7-8-6-7v-5l11-11 2-1v-2l4-2 16-15 12-11 10-9 8-7 12-11 8-7 13-12 10-9 8-7 16-15 8-7 3-2v-2l4-2 14-14 3-5-1-7-6-3h-100l-7 3-11 10-8 7-14 12-16 15-10 9-11 9-13 12-8 7-15 14-4 4-6-1-12-11-10-9-12-11-13-12-10-9-6-6h-2v-2l-8-7-12-11-14-13-10-8-7-2z" fill="#FBFAFA"/>
<path transform="translate(603,559)" d="m0 0 8 6 17 17 6 5v2l4 2 17 17 8 7 17 16 9 9 8 7 16 16 8 7 8 8 8 7 4 5-1 9-4 4-4 1h-91l-7-2-15-14-4-3v-2l-4-2-7-7-2-1v-2l-4-2-7-7-2-1v-2l-4-2-7-7-8-7-3-2v-2l-4-2-7-7-8-7-7-6v-2l-4-2-9-9-8-6-6 1-10 8-8 8-8 7-16 15-15 14-17 16-11 10-8 7-16 15-8 5h-94l-6-3-2-4 1-7 7-8 16-16 8-7 16-15 11-11 8-7 8-8 8-7 9-9 4 1-6 7 4-1-6 7-11 11h-2v2l-8 7-16 15-11 11h-2l-1 3h-2l-2 4-10 9-7 7-2 3-6 5-1 3h93l5-2v-2l8-7 3-1 2-4 8-7 17-16 10-9 15-14h2v-2l8-7 12-11 4-2v-2l8-7 5-5h2v-2l11-8 6-1 8 8 8 7 14 14 3 2 1 5 1-2 3 4h2l2 2 1 2 5 2 9 9 2 1v2l4 2 14 13h2v3l2-1-1-3-4-2-4-3v-2l-4-2-1-2 5 1v2h6l1 3h5l2-2 5-2 3-5 5-3 7-4 6-1h14l4-3 7-3 1-6 7 6 8 7 8 8 8 7 34 34 8 7-4-5-17-16-33-33-2-1v-2l-4-2-22-22-8-7-10-10-4-3v-2l-4-2v-2l-3-1-5-5v-2h-2l-2-6-8-7-2-4z" fill="#9A2D27"/>
<path transform="translate(724,347)" d="m0 0h14l12 4 5 3 7 8 4 8 1 4v16l-4 9-8 10-15 14-12 11-4 2-2 4-6 6h-2v2l-11 9-15 14h-2v2l-8 7h-2v2l-11 9-16 15-16 14h-2v2l-8 7-4 4v8l1 4h2l3 3v2l4 2 7 6 8 6v2h2l4 4v2h2l3 3v2h2v2h2l4 4v2l4 2 11 9 10 10 2 4 4 2 8 8 8 6 4 5v2l4 2 12 12 5 4v2l4 2v2l4 2 4 4v2l4 2 9 10 4 8 1 3v17l-4 10-6 7-11 7-10 2-84 1-13-2-16-8-10-9-9-7-16-15-2-1v-2l-4-2-14-14-5-4v-2l-4-2-16-15-8-7-9-6-8 1-13 11-7 7-8 7-10 9h-2v2l-10 8-11 10-8 7-7 7-8 7-7 7-14 9-11 3-83 1-16-2-11-6-8-9-4-10 1-4 6 11 8 7 8 3h93l10-2 9-5 14-12 9-9 8-7 15-14 10-9 13-12 8-7 10-9 13-11 3-2 5 1 10 9 7 7 8 7 12 11 10 9 14 13 11 9 13 13 8 7 12 9 8 3 6 1h72l22-1 10-4 8-7 4-8 1-5v-8l-3-9-4-6-9-10-8-8-8-7-7-7-8-7-23-23-8-7-9-9-8-7-16-15-8-8-8-7-11-11-2-1v-2h-2l-7-9v-6l7-8 10-9 11-10 8-7 15-14 8-7 15-14 8-7 10-9 13-12 15-14 10-9 15-14 4-6 2-6v-12l-4-10-6-7-8-4-19-2z" fill="#738182"/>
<path transform="translate(279,390)" d="m0 0 3 3 8 11 11 9 14 13 8 7 15 14 8 7 10 9 8 7 12 11 16 15 8 7 10 9 19 19 1 4-5 4-1-7-10-10-4-3v-2l-4-2-8-7-11-10-8-7-12-11-8-7-6-5v-2l-4-2-5-5-11-9v-2l-4-2-15-14-11-9v-2h-2v-2h-2v-2h-2v-2l-4-2-2-4h-2v-2h-2l-6-9-2-5z" fill="#768484"/>
<path transform="translate(656,453)" d="m0 0h5v3l-12 11-8 7-12 11-8 7-13 12-12 11h-2v2l-8 7-5 5-2 6-2-1v-5l-2-4h2l2-4 13-13h2l2-4 7-6h2v-2h2v-2l7-4 7-3 5-6h3l-1-4 5-5 1-2h2l2-4 4-2 5-2 4-4 4-2 2 1z" fill="#9B302B"/>
<path transform="translate(408,351)" d="m0 0 9 2 6 4v2l4 1 2 1v2h2l5 5 1 3 4 2 9 8 7 6v2l5 2 5 5 13 12 5 4v2h2v2l4 2 5 6 5 3v2l4 2 4 4v2h2v2h2v2l4 1v2l-4-1-9-7-17-16-12-11-14-12-12-11-8-7-13-12-12-10-8-4z" fill="#768585"/>
<path transform="translate(608,665)" d="m0 0 8 6 20 20 5 3 90 1-1 2h-88l-5-2-16-15-14-14z" fill="#C8312C"/>
<path transform="translate(703,413)" d="m0 0 4 1-16 15-11 10-16 14-2-1 1-3h2v-2h2v-2l5-2v-2l6-6h2v-2l6-4 3-4 5-3 5-5 4-2z" fill="#9A3A35"/>
<path transform="translate(442,550)" d="m0 0v3l-14 13-5 5-16 15-13 13-2-1 25-25 8-7 10-10z" fill="#9C5351"/>
<path transform="translate(608,665)" d="m0 0 8 6 20 20 3 2v2l-4-2-13-12-15-15z" fill="#C03733"/>
<path transform="translate(670,443)" d="m0 0m-1 1m-2 1h2v4l-6 4v-4h2v-2h2z" fill="#9D342F"/>
</svg>
